<svg width="40" height="38" viewBox="0 0 40 38" fill="none" xmlns="http://www.w3.org/2000/svg">
<path d="M15.4015 33.3888H23.7549V21.2307H15.4015V33.3888ZM22.2408 31.9136H16.9155V22.706H22.1886V31.9136H22.2408Z" fill="#81B3D2"/>
<path d="M38.4036 20.6278L39.5 19.5595L34.3313 14.5233V0.7882H27.1265V7.50314L19.9739 0.584717L0.5 19.6104L1.59639 20.6787L5.66867 16.7108V35.9399H3.63253V37.4152H36.994V35.9399H34.3313V16.6599L38.4036 20.6278ZM28.6406 2.31432H32.7651V13.0481L28.6406 9.02927V2.31432ZM32.8173 35.889H7.23494V15.1846L19.9739 2.72129L32.7651 15.1846V35.889H32.8173Z" fill="#81B3D2"/>
<path d="M15.5582 14.0063C15.5582 16.1937 17.3855 17.9742 19.5783 17.9742C21.8233 17.9742 23.6506 16.1937 23.6506 14.0063C23.6506 11.8188 21.8233 10.0892 19.5783 10.0892C17.3333 10.0892 15.5582 11.8188 15.5582 14.0063ZM19.5783 11.4627C20.9879 11.4627 22.1888 12.5819 22.1888 14.0063C22.1888 15.3798 21.0402 16.5498 19.5783 16.5498C18.1687 16.5498 16.9679 15.4307 16.9679 14.0063C16.9679 12.6328 18.1687 11.4627 19.5783 11.4627Z" fill="#81B3D2"/>
<path d="M10.3895 21.2307H8.82324V23.2147H10.3895V21.2307Z" fill="#81B3D2"/>
<path d="M13.4698 21.2307H11.9036V23.2147H13.4698V21.2307Z" fill="#81B3D2"/>
<path d="M10.3895 24.2822H8.82324V26.2662H10.3895V24.2822Z" fill="#81B3D2"/>
<path d="M13.4698 24.2822H11.9036V26.2662H13.4698V24.2822Z" fill="#81B3D2"/>
<path d="M27.0443 21.2307H25.478V23.2147H27.0443V21.2307Z" fill="#81B3D2"/>
<path d="M30.1769 21.2307H28.6106V23.2147H30.1769V21.2307Z" fill="#81B3D2"/>
<path d="M27.0443 24.2822H25.478V26.2662H27.0443V24.2822Z" fill="#81B3D2"/>
<path d="M30.1769 24.2822H28.6106V26.2662H30.1769V24.2822Z" fill="#81B3D2"/>
</svg>
