<svg width="40" height="38" fill="none" xmlns="http://www.w3.org/2000/svg"><path d="M15.402 33.389h8.353V21.23h-8.353v12.158Zm6.839-1.475h-5.325v-9.208h5.273v9.208h.052Z" fill="#81B3D2"/><path d="m38.404 20.628 1.096-1.069-5.169-5.036V.788h-7.205v6.715L19.974.585.5 19.61l1.096 1.069L5.67 16.71V35.94H3.633v1.475h33.361V35.94h-2.663V16.66l4.073 3.968ZM28.64 2.314h4.124v10.734L28.641 9.03V2.314Zm4.176 33.575H7.235V15.185L19.974 2.72l12.791 12.464v20.704h.052Z" fill="#81B3D2"/><path d="M15.558 14.006c0 2.188 1.828 3.968 4.02 3.968 2.245 0 4.073-1.78 4.073-3.968 0-2.187-1.828-3.917-4.073-3.917s-4.02 1.73-4.02 3.917Zm4.02-2.543c1.41 0 2.61 1.119 2.61 2.543 0 1.374-1.148 2.544-2.61 2.544-1.41 0-2.61-1.12-2.61-2.544 0-1.373 1.2-2.543 2.61-2.543ZM10.39 21.23H8.822v1.985h1.566V21.23ZM13.47 21.23h-1.566v1.985h1.566V21.23ZM10.39 24.282H8.822v1.984h1.566v-1.984ZM13.47 24.282h-1.566v1.984h1.566v-1.984ZM27.044 21.23h-1.566v1.985h1.566V21.23ZM30.177 21.23H28.61v1.985h1.566V21.23ZM27.044 24.282h-1.566v1.984h1.566v-1.984ZM30.177 24.282H28.61v1.984h1.566v-1.984Z" fill="#81B3D2"/></svg>